<svg t="1748136570152" class="icon" viewBox="0 0 1024 1024" version="1.1" xmlns="http://www.w3.org/2000/svg" p-id="2612" width="64" height="64">
  <path d="M1014.56128 206.336c-10.752-5.12-15.872 4.608-22.016 9.728a58.510222 58.510222 0 0 0-5.688889 5.688889 70.684444 70.684444 0 0 1-58.908444 26.624 113.493333 113.493333 0 0 0-92.188445 36.352 85.333333 85.333333 0 0 0-53.276444-66.588445 85.76 85.76 0 0 1-40.448-28.16 100.551111 100.551111 0 0 1-13.312-32.768c-2.048-6.656-4.608-13.824-12.288-14.848-8.192-1.024-11.776 5.688889-15.36 11.776a154.709333 154.709333 0 0 0-17.92 78.364445 170.666667 170.666667 0 0 0 78.364444 145.066667 11.605333 11.605333 0 0 1 5.688889 13.824c-3.584 12.288-7.68 23.552-11.377778 35.84-2.048 7.68-5.688889 9.728-14.222222 6.144a236.458667 236.458667 0 0 1-74.268444-50.716445 1191.196444 1191.196444 0 0 0-110.620445-104.988444 609.194667 609.194667 0 0 0-29.696-20.48c-41.984-40.96 5.688889-74.268444 16.896-78.364445s4.096-18.432-33.28-17.92a326.513778 326.513778 0 0 0-114.716444 29.184 89.059556 89.059556 0 0 1-19.911111 5.688889 395.889778 395.889778 0 0 0-122.908445-4.295111 269.795556 269.795556 0 0 0-192.056889 112.668444 328.078222 328.078222 0 0 0-53.788444 259.669334 395.377778 395.377778 0 0 0 143.388444 241.208889 383.061333 383.061333 0 0 0 275.029334 91.676444 324.949333 324.949333 0 0 0 213.048889-79.388444 205.198222 205.198222 0 0 0 75.804444 16.896 268.686222 268.686222 0 0 0 72.732444-5.12c31.288889-6.656 29.184-35.84 17.92-41.472-91.676444-43.008-71.708444-25.088-90.140444-39.424 47.104-55.324444 117.276444-112.668444 144.412444-299.093334a167.111111 167.111111 0 0 0 0-35.84c0-7.168 1.536-10.24 9.728-10.752a168.561778 168.561778 0 0 0 66.076445-20.48 173.226667 173.226667 0 0 0 89.116444-150.044444c0.938667-10.353778 0.426667-20.536889-9.813333-25.656889zM495.222613 783.530667c-89.116444-70.172444-132.124444-93.212444-150.556444-92.188445-16.384 1.024-13.824 19.911111-9.728 32.256a119.808 119.808 0 0 0 15.872 31.288889 16.696889 16.696889 0 0 1-5.12 26.112c-28.672 17.92-78.364444-6.144-80.924445-7.168a369.777778 369.777778 0 0 1-140.828444-141.340444 425.358222 425.358222 0 0 1-55.324444-191.544889c-0.512-16.896 4.096-22.528 20.48-25.6a198.200889 198.200889 0 0 1 65.052444-1.536 406.755556 406.755556 0 0 1 233.016889 118.300444 764.700444 764.700444 0 0 1 93.724444 123.932445 585.955556 585.955556 0 0 0 105.500445 124.444444 332.487111 332.487111 0 0 0 37.888 29.184 179.512889 179.512889 0 0 1-129.052445-26.112z m42.496-275.029334a12.686222 12.686222 0 0 1 12.8-12.8 12.999111 12.999111 0 0 1 12.8 12.8 12.8 12.8 0 0 1-13.312 12.8 11.975111 11.975111 0 0 1-12.288-12.8z m132.636445 68.124445a73.016889 73.016889 0 0 1-25.088 6.656 55.751111 55.751111 0 0 1-34.304-10.752 52.935111 52.935111 0 0 1-23.552-32.256 68.920889 68.920889 0 0 1 0.512-25.088 27.960889 27.960889 0 0 0-10.24-31.288889 45.056 45.056 0 0 0-29.696-8.192 20.167111 20.167111 0 0 1-10.752-3.072 12.117333 12.117333 0 0 1-5.688889-6.656 14.222222 14.222222 0 0 1-0.512-4.608 5.688889 5.688889 0 0 1 1.536-4.096 74.467556 74.467556 0 0 1 8.192-9.216 55.950222 55.950222 0 0 1 48.64 0.512 152.661333 152.661333 0 0 1 43.008 33.28 304.355556 304.355556 0 0 1 29.184 38.912 174.762667 174.762667 0 0 1 18.944 36.352 13.880889 13.880889 0 0 1-10.154667 19.512889z" fill="#FFFFFF" p-id="2613"></path>
</svg>