<svg xmlns="http://www.w3.org/2000/svg" xmlns:xlink="http://www.w3.org/1999/xlink" width="200" height="200" viewBox="0 0 200 200" fill="none">
<path d="M99.8888 58.9999C99.9999 46.4445 99.8888 33.8888 99.9999 21.3333L125.666 21.3333C125.555 23.5554 125.889 25.7777 126.222 27.8888L107.333 27.8888L107.333 129.889C107.444 134.222 106.333 138.555 104.222 142.333C100.889 148.111 94.6665 152.111 87.9999 152.667C83.7776 153 79.4444 152.222 75.6665 150.111C72.7776 148.555 70.3333 146.333 68.4444 143.667C74.9999 147.333 83.5554 147 89.8888 142.889C95.9999 139.111 99.9999 132 99.9999 124.667C99.8888 102.778 99.8888 80.8888 99.8888 58.9999ZM142.222 51.7777C145.778 53.9999 149.778 55.7777 153.889 56.6665C156.333 57.2222 158.778 57.4445 161.333 57.4445L161.333 63.2222C154 61.5554 147.222 57.4445 142.222 51.7777Z"   fill="#25F4EE" >
</path>
<path d="M53.6666 83.7777C62.8889 78 74.1112 75.6666 84.7778 77.2223L84.7778 83.3334C81.8889 83.4445 79.1112 83.7777 76.2223 84.3334C69.3335 85.7777 62.7778 88.6666 57.1112 92.8889C51 97.4445 46.3334 103.667 43.1111 110.555C40 117.111 38.4445 124.333 38.5555 131.667C38.5555 139.667 40.7777 147.445 44.5554 154.444C46.3334 157.667 48.3334 160.778 51 163.333C45.5556 159.555 41 154.444 37.6666 148.667C33.1111 141 30.8888 132 31.1111 123C31.4445 114.778 33.7777 106.667 38.1111 99.5555C41.8888 93.2223 47.3334 87.6666 53.6666 83.7777Z"   fill="#25F4EE" >
</path>
<path d="M107.333 27.8889L126.333 27.8889C127 31.5555 128.333 35 130 38.3334C132.667 43.4445 136.445 48 141.333 51C141.667 51.2223 141.889 51.4445 142.111 51.7778C147.111 57.4445 153.889 61.5555 161.333 63.2223C161.445 69.8889 161.333 76.6666 161.333 83.3334C148.778 83.4445 136.222 79.4445 126 72.1112C126 88.1112 126 104.111 126.111 120.111C126.111 122.222 126.222 124.333 126.111 126.555C125.555 134.333 123.111 142 119.222 148.778C115.889 154.667 111.333 159.889 105.889 163.889C98.8889 169.111 90.2223 172 81.5555 172.222C77.1111 172.333 72.6666 172.111 68.3334 171.111C62.2223 169.778 56.4446 167.222 51.3335 163.667L51.0001 163.333C48.4446 160.778 46.3335 157.667 44.5555 154.445C40.7778 147.555 38.5555 139.667 38.5555 131.667C38.4446 124.445 40.0001 117.111 43.1112 110.555C46.3335 103.667 51.1112 97.4445 57.1112 92.8889C62.7777 88.6666 69.3334 85.7778 76.2223 84.3334C79 83.7778 81.8889 83.4445 84.7777 83.3334C84.8889 85.8889 84.7777 88.4445 84.8889 90.8889L84.8889 103.889C81.6666 102.778 78.1111 102.778 74.7777 103.555C70.7777 104.445 67 106.222 63.8889 108.889C62 110.555 60.3334 112.555 59.2223 114.778C57.2223 118.555 56.5555 123 57.0001 127.222C57.4446 131.333 59.2223 135.333 61.8889 138.445C63.6666 140.667 66 142.333 68.3334 143.889C70.2223 146.555 72.6666 148.778 75.5555 150.333C79.3334 152.333 83.6666 153.222 87.8889 152.889C94.5555 152.445 100.778 148.333 104.111 142.555C106.222 138.778 107.333 134.445 107.222 130.111C107.444 95.8889 107.333 61.8889 107.333 27.8889Z"   fill="#FFFFFF" >
</path>
<path d="M126.333 27.8889C128.555 28 130.778 27.8889 133.111 27.8889C133.111 35.3334 135.444 42.7778 139.778 48.8889C140.333 49.6666 140.889 50.3334 141.444 51C136.555 48 132.667 43.4445 130.111 38.3334C128.444 35.1112 127.111 31.5555 126.333 27.8889ZM161.333 63.2223C163.778 63.7778 166.222 64 168.778 64L168.778 89.8889C156.111 90 143.444 85.7778 133.111 78.3334L133.111 129.667C133.222 133.555 132.889 137.445 132 141.222C129.555 152.778 122.667 163.222 113.111 170C108 173.667 102.222 176.222 96.2222 177.555C88.8888 179.222 81.2222 179.111 73.9999 177.222C65.4445 175 57.4445 170.222 51.4445 163.667C56.5554 167.333 62.3333 169.778 68.4445 171.111C72.7777 172.111 77.2222 172.333 81.6665 172.222C90.3333 172 98.9999 169.111 106 163.889C111.444 159.889 115.889 154.667 119.333 148.778C123.222 142 125.667 134.333 126.222 126.555C126.333 124.445 126.333 122.333 126.222 120.111C126.111 104.111 126.111 88.1112 126.111 72.1112C136.333 79.4445 148.889 83.4445 161.444 83.3334C161.333 76.6666 161.444 69.8889 161.333 63.2223Z"   fill="#FE2C55" >
</path>
<path d="M84.8889 83.2222C87.3334 83.2222 89.8889 83.3334 92.3334 83.6666L92.3334 110.222C88.7777 109 84.7777 108.889 81.1111 109.778C74.1111 111.333 68.2223 116.667 65.7777 123.444C63.3334 130.111 64.3334 137.889 68.5555 143.555C66.1111 142.111 63.8889 140.333 62.1111 138.111C59.4445 135 57.6666 131 57.2223 126.889C56.7777 122.667 57.4445 118.222 59.4445 114.444C60.5555 112.222 62.2223 110.222 64.1111 108.555C67.2223 105.889 71.1111 104.222 75 103.222C78.3334 102.444 81.8889 102.444 85.1111 103.555L85.1111 90.5554C84.8889 88.3334 85 85.7777 84.8889 83.2222Z"   fill="#FE2C55" >
</path>
</svg>
