<svg t="1748093744239" class="icon" viewBox="0 0 1024 1024" version="1.1" xmlns="http://www.w3.org/2000/svg" p-id="20733" width="64" height="64">
	<path d="M299.690667 98.56a387.413333 387.413333 0 0 1 90.666666 44.629333c39.765333-10.154667 80.64-15.274667 121.642667-15.189333 42.368 0 83.242667 5.290667 121.557333 15.146667a387.413333 387.413333 0 0 1 90.624-44.586667c29.738667-10.112 72.106667-26.453333 97.28 1.365333 17.066667 18.944 21.333333 50.688 24.362667 74.922667 3.413333 27.050667 4.224 62.293333-4.736 97.28C875.349333 316.373333 896 369.152 896 426.666667c0 87.125333-47.189333 162.773333-117.034667 215.168a403.498667 403.498667 0 0 1-110.506666 57.856c9.130667 20.906667 14.208 44.032 14.208 68.309333v128a42.666667 42.666667 0 0 1-42.666667 42.666667H384a42.666667 42.666667 0 0 1-42.666667-42.666667v-42.24c-40.746667 4.949333-74.922667 0.512-103.978666-11.818667-30.378667-12.885333-51.541333-32.853333-67.456-51.968-15.104-18.090667-31.573333-58.88-55.381334-66.816a42.666667 42.666667 0 0 1 26.965334-80.981333c28.416 9.472 46.933333 29.952 59.605333 46.421333 20.48 26.453333 37.12 61.013333 69.546667 74.794667 13.354667 5.674667 32.938667 9.386667 63.573333 5.205333L341.333333 767.146667a170.069333 170.069333 0 0 1 14.208-67.413334 403.498667 403.498667 0 0 1-110.506666-57.898666C175.189333 589.44 128 513.834667 128 426.666667c0-57.429333 20.608-110.165333 54.784-154.368-8.96-34.986667-8.192-70.314667-4.778667-97.408l0.213334-1.621334c3.114667-24.832 6.741333-54.058667 24.149333-73.344 25.173333-27.861333 67.584-11.434667 97.28-1.28l0.042667-0.085333z" p-id="20734" fill="#ffffff"></path>
</svg>