<svg t="1748000923200" class="icon" viewBox="0 0 1024 1024" version="1.1" xmlns="http://www.w3.org/2000/svg" p-id="2989" width="200" height="200">
  <path d="M585.216 833.3312v-375.808a119.4496 119.4496 0 0 1 119.3984 119.3472v256.4096l-119.3984 0.0512z m-423.8336-8.8576V218.9824h121.1392v605.4912H161.3824z m121.8048-247.6032V457.5232h302.08v35.1232a84.3264 84.3264 0 0 1-84.3776 84.224H283.1872z m149.248-119.3472l103.6288-242.3296h133.4272l-79.9232 186.88a91.2896 91.2896 0 0 1-83.968 55.4496H432.4352z" fill="#ffffff" p-id="2990"></path>
  <path d="M862.5664 260.9152c0 38.8096-31.4368 70.2464-70.2464 70.2464-10.24 0-64.9728 7.0144-64.9728 7.0144s10.5472-12.288 19.3024-23.8592a70.2464 70.2464 0 1 1 115.8656-53.3504l0.0512-0.0512z" fill="#007AFF" p-id="2991"></path>
</svg>