<svg t="1748007330511" class="icon" viewBox="0 0 1024 1024" version="1.1" xmlns="http://www.w3.org/2000/svg" p-id="10496" width="200" height="200">
	<path d="M462.011733 162.133333 262.0928 162.133333C205.448533 162.133333 162.133333 205.448533 162.133333 262.0928L162.133333 678.6048C162.133333 688.605867 168.789333 695.261867 178.7904 695.261867L212.1216 695.261867C222.1056 695.261867 228.778667 688.605867 228.778667 678.6048L228.778667 242.107733C228.778667 235.434667 235.434667 228.778667 242.107733 228.778667L415.368533 228.778667C422.0416 228.778667 428.6976 235.434667 428.6976 242.107733L428.6976 678.6048C428.6976 688.605867 435.370667 695.261867 445.354667 695.261867L478.685867 695.261867C488.669867 695.261867 495.342933 688.605867 495.342933 678.6048L495.342933 195.447467C495.342933 178.7904 482.013867 162.133333 462.011733 162.133333L462.011733 162.133333ZM482.013867 795.221333C468.6848 791.893333 448.682667 781.892267 418.696533 761.9072 355.396267 711.918933 358.724267 661.947733 358.724267 661.947733L358.724267 312.081067C358.724267 302.08 352.068267 295.406933 342.0672 295.406933L308.736 295.406933C298.752 295.406933 292.078933 302.08 292.078933 312.081067L288.750933 661.947733C288.750933 661.947733 288.750933 728.593067 242.107733 765.2352 215.4496 781.892267 188.791467 791.893333 175.4624 795.221333 168.789333 795.221333 162.133333 801.8944 162.133333 808.5504L162.133333 841.8816C162.133333 851.8656 172.1344 858.538667 182.1184 858.538667 205.448533 855.210667 242.107733 848.5376 265.4208 831.880533 318.737067 798.5664 328.738133 765.2352 328.738133 765.2352 328.738133 765.2352 338.7392 795.221333 395.383467 828.552533 425.3696 848.5376 455.355733 855.210667 475.3408 855.210667 485.341867 855.210667 495.342933 848.5376 495.342933 838.536533L495.342933 805.2224C495.342933 801.8944 488.669867 798.5664 482.013867 795.221333L482.013867 795.221333ZM845.2096 495.342933 695.261867 495.342933 695.261867 328.738133 845.2096 328.738133C855.210667 328.738133 861.866667 322.065067 861.866667 312.081067L861.866667 278.749867C861.866667 268.765867 855.210667 262.0928 845.2096 262.0928L695.261867 262.0928 695.261867 178.7904C695.261867 168.789333 688.605867 162.133333 678.6048 162.133333L645.290667 162.133333C635.2896 162.133333 628.616533 168.789333 628.616533 178.7904L628.616533 495.342933 578.645333 495.342933C568.644267 495.342933 561.988267 501.998933 561.988267 512L561.988267 845.2096C561.988267 855.210667 568.644267 861.866667 578.645333 861.866667L761.9072 861.866667C818.551467 861.866667 861.866667 815.223467 861.866667 761.9072L861.866667 512C861.866667 501.998933 855.210667 495.342933 845.2096 495.342933L845.2096 495.342933ZM795.221333 761.9072C795.221333 781.892267 778.564267 795.221333 761.9072 795.221333L638.6176 795.221333C631.9616 795.221333 628.616533 791.893333 628.616533 785.220267L628.616533 571.972267C628.616533 565.316267 631.9616 561.988267 638.6176 561.988267L785.220267 561.988267C791.893333 561.988267 795.221333 565.316267 795.221333 571.972267L795.221333 761.9072 795.221333 761.9072Z" p-id="10497" fill="#ffffff"></path>
</svg>