<svg xmlns="http://www.w3.org/2000/svg" xmlns:xlink="http://www.w3.org/1999/xlink" width="100" height="100" viewBox="0 0 100 100" fill="none">
<rect x="0" y="0" width="100" height="100"   fill="url(#linear_fill_0_1)" >
</rect>
<path d="M40.8571 26.6056C40.8256 26.6056 40.794 26.6066 40.7625 26.6087C40.731 26.6108 40.6995 26.614 40.6681 26.6181C40.6367 26.6223 40.6054 26.6275 40.5741 26.6338C40.5429 26.64 40.5118 26.6473 40.4809 26.6557C40.4499 26.664 40.4192 26.6733 40.3885 26.6837C40.3579 26.694 40.3275 26.7054 40.2973 26.7178C40.2671 26.7302 40.2371 26.7435 40.2074 26.7579C40.1777 26.7723 40.1483 26.7876 40.1191 26.8039C40.0899 26.8203 40.0611 26.8375 40.0326 26.8558C40.004 26.874 39.9759 26.8932 39.948 26.9133C39.9202 26.9334 39.8927 26.9544 39.8657 26.9763C39.8386 26.9982 39.8119 27.021 39.7857 27.0447C39.7594 27.0684 39.7337 27.0929 39.7083 27.1184C39.6829 27.1438 39.6581 27.17 39.6337 27.197C39.6093 27.2241 39.5854 27.2519 39.562 27.2806C39.5386 27.3092 39.5158 27.3386 39.4934 27.3687C39.4711 27.3989 39.4493 27.4298 39.4282 27.4614C39.407 27.493 39.3864 27.5253 39.3663 27.5582C39.3463 27.5912 39.3269 27.6248 39.3081 27.659C39.2893 27.6933 39.2711 27.7281 39.2536 27.7636C39.236 27.799 39.2192 27.8351 39.2029 27.8716C39.1867 27.9082 39.1712 27.9453 39.1563 27.9829C39.1414 28.0205 39.1272 28.0586 39.1137 28.0972C39.1002 28.1357 39.0874 28.1747 39.0754 28.2141C39.0633 28.2535 39.0519 28.2932 39.0413 28.3334C39.0307 28.3735 39.0208 28.414 39.0116 28.4548C39.0025 28.4956 38.994 28.5367 38.9864 28.5781C38.9787 28.6194 38.9718 28.661 38.9656 28.7029C38.9595 28.7447 38.9541 28.7867 38.9494 28.8289C38.9448 28.871 38.941 28.9134 38.9379 28.9558C38.9348 28.9982 38.9324 29.0407 38.9309 29.0833C38.9294 29.1259 38.9286 29.1685 38.9286 29.2112L38.9286 73.3942L48.259 64.3867C48.2995 64.3475 48.3406 64.3095 48.3823 64.2726C48.4239 64.2356 48.4661 64.1998 48.5088 64.165C48.5514 64.1302 48.5946 64.0966 48.6382 64.0641C48.6819 64.0316 48.7259 64.0003 48.7705 63.9701C48.815 63.94 48.86 63.9109 48.9053 63.8831C48.9507 63.8553 48.9964 63.8287 49.0426 63.8032C49.0887 63.7778 49.1352 63.7535 49.182 63.7305C49.2288 63.7075 49.276 63.6858 49.3234 63.6652C49.3709 63.6447 49.4186 63.6255 49.4666 63.6074C49.5146 63.5894 49.5629 63.5726 49.6114 63.5571C49.6598 63.5416 49.7085 63.5273 49.7574 63.5144C49.8063 63.5014 49.8554 63.4897 49.9046 63.4793C49.9538 63.469 50.0032 63.4599 50.0527 63.4521C50.1021 63.4443 50.1517 63.4378 50.2014 63.4325C50.2511 63.4273 50.3008 63.4234 50.3506 63.4208C50.4004 63.4182 50.4502 63.4169 50.5 63.4169C50.5498 63.4169 50.5996 63.4182 50.6494 63.4208C50.6992 63.4234 50.7489 63.4273 50.7986 63.4325C50.8483 63.4378 50.8979 63.4443 50.9473 63.4521C50.9968 63.4599 51.0462 63.469 51.0954 63.4793C51.1446 63.4897 51.1937 63.5014 51.2426 63.5144C51.2915 63.5273 51.3402 63.5416 51.3886 63.5571C51.4371 63.5726 51.4854 63.5894 51.5334 63.6074C51.5814 63.6255 51.6291 63.6447 51.6766 63.6652C51.724 63.6858 51.7712 63.7075 51.818 63.7305C51.8648 63.7535 51.9113 63.7778 51.9574 63.8032C52.0036 63.8287 52.0493 63.8553 52.0947 63.8831C52.14 63.9109 52.185 63.94 52.2295 63.9701C52.2741 64.0003 52.3181 64.0316 52.3618 64.0641C52.4054 64.0966 52.4486 64.1302 52.4912 64.165C52.5339 64.1998 52.5761 64.2356 52.6177 64.2726C52.6594 64.3095 52.7005 64.3475 52.741 64.3867L62.0714 73.3942L62.0714 29.2112C62.0714 29.1685 62.0706 29.1259 62.0691 29.0833C62.0676 29.0407 62.0653 28.9982 62.0621 28.9558C62.059 28.9134 62.0552 28.871 62.0506 28.8289C62.0459 28.7867 62.0405 28.7447 62.0344 28.7029C62.0282 28.661 62.0213 28.6194 62.0136 28.5781C62.006 28.5367 61.9975 28.4956 61.9884 28.4548C61.9792 28.414 61.9693 28.3735 61.9587 28.3334C61.9481 28.2932 61.9367 28.2535 61.9246 28.2141C61.9125 28.1747 61.8998 28.1357 61.8863 28.0972C61.8728 28.0586 61.8586 28.0205 61.8437 27.9829C61.8288 27.9453 61.8133 27.9082 61.7971 27.8716C61.7808 27.8351 61.7639 27.799 61.7464 27.7636C61.7289 27.7281 61.7107 27.6933 61.6919 27.659C61.6731 27.6248 61.6537 27.5912 61.6337 27.5582C61.6137 27.5253 61.5931 27.493 61.5718 27.4614C61.5506 27.4298 61.5289 27.3989 61.5066 27.3687C61.4842 27.3386 61.4614 27.3092 61.438 27.2806C61.4146 27.2519 61.3907 27.2241 61.3663 27.197C61.3419 27.17 61.3171 27.1438 61.2917 27.1184C61.2664 27.0929 61.2406 27.0684 61.2143 27.0447C61.1881 27.021 61.1614 26.9982 61.1343 26.9763C61.1073 26.9544 61.0798 26.9334 61.052 26.9133C61.0241 26.8932 60.9959 26.874 60.9674 26.8558C60.9389 26.8375 60.9101 26.8203 60.8809 26.8039C60.8517 26.7876 60.8223 26.7723 60.7926 26.7579C60.7629 26.7435 60.7329 26.7302 60.7027 26.7178C60.6725 26.7054 60.6421 26.694 60.6115 26.6837C60.5809 26.6733 60.55 26.664 60.5191 26.6557C60.4882 26.6473 60.4571 26.64 60.4258 26.6338C60.3946 26.6275 60.3633 26.6223 60.3319 26.6181C60.3005 26.614 60.269 26.6108 60.2375 26.6087C60.2059 26.6066 60.1744 26.6056 60.1429 26.6056L40.8571 26.6056ZM40.8571 24L60.1429 24C60.206 24 60.2691 24.0021 60.3321 24.0063C60.3952 24.0105 60.4581 24.0167 60.5209 24.0251C60.5838 24.0335 60.6464 24.0439 60.7088 24.0564C60.7713 24.0689 60.8335 24.0835 60.8953 24.1001C60.9573 24.1168 61.0189 24.1355 61.0801 24.1562C61.1413 24.1769 61.2021 24.1996 61.2625 24.2244C61.3229 24.2491 61.3829 24.2759 61.4423 24.3046C61.5017 24.3334 61.5606 24.364 61.6189 24.3967C61.6772 24.4293 61.7349 24.4639 61.792 24.5003C61.8491 24.5368 61.9054 24.5751 61.9611 24.6153C62.0168 24.6555 62.0717 24.6976 62.1258 24.7414C62.1799 24.7852 62.2333 24.8309 62.2858 24.8782C62.3382 24.9256 62.3898 24.9747 62.4406 25.0255C62.4913 25.0763 62.541 25.1288 62.5898 25.1829C62.6386 25.237 62.6864 25.2927 62.7332 25.35C62.7799 25.4072 62.8256 25.466 62.8703 25.5263C62.9149 25.5866 62.9584 25.6484 63.0008 25.7116C63.0432 25.7748 63.0844 25.8393 63.1245 25.9052C63.1645 25.9712 63.2033 26.0384 63.2409 26.1069C63.2786 26.1754 63.3149 26.2451 63.3499 26.316C63.385 26.3869 63.4188 26.4589 63.4512 26.5321C63.4837 26.6053 63.5148 26.6794 63.5446 26.7547C63.5743 26.8299 63.6027 26.906 63.6297 26.9831C63.6567 27.0602 63.6822 27.1382 63.7064 27.2169C63.7305 27.2957 63.7532 27.3753 63.7745 27.4556C63.7958 27.5359 63.8156 27.6168 63.8339 27.6985C63.8522 27.7801 63.8691 27.8622 63.8844 27.945C63.8997 28.0277 63.9136 28.1109 63.9259 28.1945C63.9382 28.2782 63.949 28.3622 63.9583 28.4465C63.9675 28.5309 63.9753 28.6155 63.9814 28.7004C63.9876 28.7853 63.9922 28.8703 63.9954 28.9555C63.9985 29.0407 64 29.1259 64 29.2112L64 73.3942C64 73.424 63.9996 73.4537 63.9989 73.4834C63.9981 73.5131 63.997 73.5428 63.9955 73.5724C63.994 73.6021 63.9921 73.6317 63.9899 73.6613C63.9876 73.6909 63.985 73.7204 63.982 73.7498C63.979 73.7793 63.9756 73.8087 63.9719 73.838C63.9681 73.8673 63.964 73.8965 63.9595 73.9256C63.955 73.9547 63.9502 73.9837 63.9449 74.0126C63.9397 74.0415 63.9341 74.0703 63.9282 74.0989C63.9222 74.1275 63.9159 74.156 63.9093 74.1844C63.9026 74.2127 63.8955 74.2408 63.8882 74.2688C63.8808 74.2969 63.8731 74.3247 63.865 74.3523C63.8569 74.38 63.8484 74.4075 63.8396 74.4347C63.8309 74.462 63.8217 74.489 63.8123 74.5159C63.8028 74.5427 63.7929 74.5693 63.7828 74.5957C63.7727 74.6221 63.7622 74.6482 63.7514 74.6741C63.7406 74.7 63.7294 74.7257 63.718 74.7511C63.7065 74.7765 63.6947 74.8016 63.6827 74.8264C63.6706 74.8513 63.6581 74.8759 63.6454 74.9001C63.6327 74.924 63.6197 74.948 63.6064 74.9719C63.593 74.9958 63.5794 75.0192 63.5655 75.0421C63.5516 75.065 63.5374 75.0879 63.5229 75.1103C63.5084 75.1327 63.4936 75.1546 63.4786 75.1765C63.4635 75.1983 63.4482 75.2192 63.4326 75.2401C63.417 75.2609 63.4012 75.2818 63.3851 75.3022C63.369 75.3225 63.3526 75.3424 63.336 75.3617C63.3194 75.3816 63.3025 75.4004 63.2854 75.4192C63.2683 75.438 63.251 75.4564 63.2334 75.4742C63.2158 75.492 63.1981 75.5098 63.18 75.5266C63.162 75.5434 63.1438 75.5602 63.1254 75.5765C63.1069 75.5928 63.0883 75.6085 63.0695 75.6238C63.0506 75.6396 63.0316 75.6543 63.0124 75.6691C62.9932 75.6833 62.9738 75.6971 62.9542 75.7108C62.9347 75.7246 62.915 75.7378 62.895 75.7505C62.8751 75.7632 62.8551 75.7754 62.8349 75.7872C62.8146 75.7989 62.7943 75.8106 62.7738 75.8212C62.7533 75.8319 62.7327 75.8426 62.7119 75.8523C62.6912 75.862 62.6703 75.8716 62.6493 75.8803C62.6283 75.8889 62.6072 75.8976 62.586 75.9057C62.5648 75.9134 62.5435 75.921 62.5221 75.9281C62.5006 75.9347 62.4792 75.9413 62.4576 75.9475C62.4361 75.953 62.4144 75.9586 62.3927 75.9637C62.371 75.9683 62.3493 75.9729 62.3275 75.977C62.3056 75.981 62.2838 75.9846 62.2619 75.9872C62.24 75.9902 62.2181 75.9928 62.1961 75.9948C62.1741 75.9963 62.1521 75.9978 62.1301 75.9989C62.1082 75.9999 62.0862 76.0004 62.0642 75.9999C62.0421 75.9999 62.0201 75.9994 61.9981 75.9983C61.9762 75.9968 61.9542 75.9953 61.9322 75.9933C61.9102 75.9912 61.8884 75.9887 61.8665 75.9851C61.8446 75.9821 61.8227 75.9785 61.801 75.9744C61.7792 75.9698 61.7574 75.9653 61.7358 75.9602C61.7141 75.9551 61.6925 75.9495 61.6709 75.9434C61.6494 75.9373 61.628 75.9307 61.6067 75.923C61.5853 75.9159 61.564 75.9083 61.5428 75.9001C61.5217 75.892 61.5006 75.8833 61.4797 75.8742C61.4587 75.865 61.4379 75.8553 61.4172 75.8457C61.3965 75.8355 61.3759 75.8248 61.3555 75.8136C61.335 75.8029 61.3148 75.7912 61.2946 75.7795C61.2745 75.7673 61.2545 75.7546 61.2346 75.7419C61.2148 75.7291 61.1952 75.7159 61.1757 75.7022C61.1562 75.6884 61.1369 75.6742 61.1178 75.6594C61.0986 75.6447 61.0797 75.6294 61.0609 75.6136C61.0422 75.5978 61.0237 75.5821 61.0053 75.5658C60.987 75.549 60.9688 75.5322 60.9509 75.5154L51.6205 66.5102C51.6002 66.4907 51.5797 66.4716 51.5589 66.4532C51.538 66.4347 51.5169 66.4167 51.4956 66.3994C51.4743 66.382 51.4527 66.3652 51.4309 66.349C51.4091 66.3327 51.387 66.317 51.3648 66.3019C51.3425 66.2869 51.32 66.2724 51.2973 66.2584C51.2746 66.2445 51.2518 66.2312 51.2287 66.2185C51.2056 66.2058 51.1824 66.1937 51.159 66.1822C51.1356 66.1707 51.112 66.1598 51.0883 66.1495C51.0646 66.1392 51.0407 66.1296 51.0167 66.1206C50.9927 66.1116 50.9686 66.1032 50.9443 66.0954C50.9201 66.0877 50.8957 66.0806 50.8713 66.0741C50.8468 66.0676 50.8223 66.0618 50.7977 66.0566C50.7731 66.0513 50.7484 66.0468 50.7237 66.0429C50.6989 66.039 50.6741 66.0358 50.6493 66.0332C50.6245 66.0306 50.5996 66.0286 50.5747 66.0273C50.5498 66.026 50.5249 66.0253 50.5 66.0253C50.4751 66.0253 50.4502 66.026 50.4253 66.0273C50.4004 66.0286 50.3755 66.0306 50.3507 66.0332C50.3259 66.0358 50.3011 66.039 50.2763 66.0429C50.2516 66.0468 50.2269 66.0513 50.2023 66.0566C50.1777 66.0618 50.1532 66.0676 50.1287 66.0741C50.1043 66.0806 50.0799 66.0877 50.0557 66.0954C50.0314 66.1032 50.0073 66.1116 49.9833 66.1206C49.9593 66.1296 49.9354 66.1392 49.9117 66.1495C49.888 66.1598 49.8644 66.1707 49.841 66.1822C49.8176 66.1937 49.7944 66.2058 49.7713 66.2185C49.7482 66.2312 49.7254 66.2445 49.7027 66.2584C49.68 66.2724 49.6575 66.2869 49.6352 66.3019C49.613 66.317 49.5909 66.3327 49.5691 66.349C49.5473 66.3652 49.5257 66.382 49.5044 66.3994C49.4831 66.4167 49.462 66.4347 49.4411 66.4532C49.4203 66.4716 49.3998 66.4907 49.3795 66.5102L40.0471 75.5154C40.0292 75.5322 40.0111 75.549 39.9928 75.5658C39.9744 75.5821 39.9559 75.5978 39.9372 75.6136C39.9184 75.6294 39.8995 75.6441 39.8804 75.6589C39.8612 75.6737 39.8419 75.6879 39.8224 75.7017C39.8029 75.7154 39.7833 75.7286 39.7635 75.7413C39.7437 75.7541 39.7237 75.7668 39.7035 75.7785C39.6834 75.7902 39.6631 75.8019 39.6427 75.8131C39.6223 75.8238 39.6017 75.8345 39.581 75.8447C39.5603 75.8543 39.5395 75.864 39.5186 75.8732C39.4977 75.8823 39.4766 75.891 39.4555 75.8991C39.4343 75.9073 39.413 75.9149 39.3917 75.922C39.3703 75.9291 39.3489 75.9357 39.3274 75.9419C39.3059 75.948 39.2843 75.9536 39.2626 75.9586C39.241 75.9637 39.2193 75.9683 39.1975 75.9729C39.1757 75.977 39.1539 75.9805 39.132 75.9836C39.1102 75.9866 39.0883 75.9892 39.0664 75.9917C39.0444 75.9938 39.0224 75.9953 39.0005 75.9963C38.9785 75.9973 38.9565 75.9978 38.9346 75.9983C38.9126 75.9983 38.8906 75.9978 38.8686 75.9968C38.8466 75.9958 38.8247 75.9943 38.8027 75.9928C38.7808 75.9907 38.7589 75.9882 38.737 75.9851C38.7151 75.9826 38.6933 75.979 38.6715 75.9749C38.6497 75.9709 38.6279 75.9663 38.6063 75.9617C38.5846 75.9566 38.563 75.951 38.5414 75.9449C38.5199 75.9393 38.4984 75.9327 38.4771 75.9256C38.4557 75.919 38.4344 75.9113 38.4132 75.9032C38.392 75.8955 38.3709 75.8869 38.35 75.8783C38.329 75.8696 38.3081 75.8599 38.2874 75.8497C38.2667 75.8401 38.246 75.8294 38.2255 75.8187C38.2051 75.808 38.1848 75.7968 38.1646 75.7851C38.1444 75.7734 38.1243 75.7612 38.1044 75.7485C38.0846 75.7357 38.0649 75.7225 38.0453 75.7088C38.0258 75.695 38.0064 75.6813 37.9872 75.6665C37.968 75.6523 37.949 75.6375 37.9302 75.6218C37.9114 75.6065 37.8928 75.5907 37.8744 75.5744C37.8559 75.5581 37.8377 75.5414 37.8198 75.5246C37.8018 75.5078 37.784 75.49 37.7665 75.4721C37.7489 75.4543 37.7316 75.436 37.7145 75.4172C37.6974 75.3983 37.6806 75.3795 37.664 75.3597C37.6474 75.3403 37.631 75.3205 37.6149 75.3001C37.5988 75.2803 37.583 75.2594 37.5674 75.2386C37.5518 75.2177 37.5365 75.1963 37.5215 75.1744C37.5064 75.1525 37.4917 75.1307 37.4772 75.1083C37.4627 75.0859 37.4485 75.0635 37.4346 75.0406C37.4207 75.0177 37.4071 74.9943 37.3938 74.9704C37.3805 74.9464 37.3675 74.9225 37.3548 74.8986C37.342 74.8743 37.3297 74.8498 37.3176 74.825C37.3055 74.8002 37.2937 74.7751 37.2822 74.7497C37.2708 74.7243 37.2597 74.6988 37.2489 74.6729C37.2381 74.6469 37.2276 74.6208 37.2175 74.5945C37.2073 74.5682 37.1975 74.5416 37.188 74.5147C37.1785 74.4879 37.1694 74.4609 37.1607 74.4337C37.1519 74.4064 37.1434 74.379 37.1353 74.3514C37.1272 74.3237 37.1195 74.296 37.1121 74.268C37.1047 74.24 37.0977 74.2119 37.091 74.1835C37.0843 74.1552 37.078 74.1268 37.0721 74.0982C37.0661 74.0696 37.0605 74.0409 37.0553 74.012C37.0501 73.9832 37.0452 73.9542 37.0407 73.9251C37.0362 73.8961 37.0321 73.8669 37.0283 73.8376C37.0246 73.8083 37.0212 73.779 37.0182 73.7495C37.0152 73.7201 37.0125 73.6906 37.0103 73.661C37.008 73.6315 37.0061 73.6019 37.0046 73.5723C37.0031 73.5426 37.0019 73.513 37.0012 73.4833C37.0004 73.4536 37 73.4239 37 73.3942L37 29.2112C37 29.1259 37.0015 29.0407 37.0046 28.9555C37.0077 28.8703 37.0124 28.7853 37.0186 28.7004C37.0247 28.6155 37.0325 28.5309 37.0417 28.4465C37.051 28.3622 37.0618 28.2782 37.0741 28.1945C37.0864 28.1109 37.1003 28.0277 37.1156 27.945C37.1309 27.8622 37.1478 27.7801 37.1661 27.6985C37.1844 27.6168 37.2042 27.5359 37.2255 27.4556C37.2467 27.3753 37.2695 27.2957 37.2936 27.2169C37.3178 27.1382 37.3433 27.0602 37.3703 26.9831C37.3973 26.906 37.4257 26.8299 37.4554 26.7547C37.4852 26.6794 37.5163 26.6053 37.5488 26.5321C37.5812 26.4589 37.615 26.3869 37.6501 26.316C37.6851 26.2451 37.7215 26.1754 37.7591 26.1069C37.7967 26.0384 37.8355 25.9712 37.8755 25.9052C37.9156 25.8393 37.9568 25.7748 37.9992 25.7116C38.0416 25.6484 38.0851 25.5866 38.1297 25.5263C38.1744 25.466 38.2201 25.4072 38.2668 25.35C38.3136 25.2927 38.3614 25.237 38.4102 25.1829C38.459 25.1288 38.5087 25.0763 38.5594 25.0255C38.6101 24.9747 38.6617 24.9256 38.7142 24.8782C38.7667 24.8309 38.82 24.7852 38.8742 24.7414C38.9283 24.6976 38.9832 24.6555 39.0389 24.6153C39.0946 24.5751 39.1509 24.5368 39.208 24.5003C39.2651 24.4639 39.3228 24.4293 39.3811 24.3967C39.4394 24.364 39.4983 24.3334 39.5577 24.3046C39.6171 24.2759 39.6771 24.2491 39.7375 24.2244C39.7979 24.1996 39.8587 24.1769 39.9199 24.1562C39.9812 24.1355 40.0427 24.1168 40.1047 24.1001C40.1666 24.0835 40.2287 24.0689 40.2912 24.0564C40.3536 24.0439 40.4162 24.0335 40.4791 24.0251C40.5419 24.0167 40.6048 24.0105 40.6679 24.0063C40.7309 24.0021 40.794 24 40.8571 24Z"   fill="#FFFFFF" >
</path>
<defs>
<linearGradient id="linear_fill_0_1" x1="50" y1="0" x2="50" y2="100" gradientUnits="userSpaceOnUse">
<stop offset="0" stop-color="#FF1A74"  />
<stop offset="1" stop-color="#FF740E"  />
</linearGradient>
</defs>
</svg>
