<svg xmlns="http://www.w3.org/2000/svg" xmlns:xlink="http://www.w3.org/1999/xlink" width="100" height="100" viewBox="0 0 100 100" fill="none">
<path     fill="url(#linear_fill_0_1_0)"  d="M0 100L100 100L100 0L0 0L0 100Z">
</path>
<path d="M50.5 30.1875C61.7206 30.1875 70.8125 39.2794 70.8125 50.5C70.8125 61.7206 61.7206 70.8125 50.5 70.8125C39.2794 70.8125 30.1875 61.7206 30.1875 50.5C30.1875 39.2794 39.2794 30.1875 50.5 30.1875Z"   fill="#FFFFFF" >
</path>
<path d="M49.8256 55.2368C48.3306 55.2368 47.12 54.0262 47.12 52.5312L47.12 41.7006C47.12 40.2056 48.3306 38.995 49.8256 38.995C51.3206 38.995 52.5312 40.2056 52.5312 41.7006L52.5312 49.8256L57.9506 49.8256C59.4456 49.8256 60.6562 51.0362 60.6562 52.5312C60.6562 54.0262 59.4456 55.2368 57.9506 55.2368L49.8256 55.2368Z"   fill="#FC7F2C" >
</path>
<defs>
<linearGradient id="linear_fill_0_1_0" x1="100" y1="0" x2="0" y2="100" gradientUnits="userSpaceOnUse">
<stop offset="0" stop-color="#FC7F2C"  />
<stop offset="1" stop-color="#F2D25E"  />
</linearGradient>
</defs>
</svg>
