<svg xmlns="http://www.w3.org/2000/svg" xmlns:xlink="http://www.w3.org/1999/xlink" width="100" height="100" viewBox="0 0 100 100" fill="none">
<path     fill="#FFFFFF"  d="M0 100L100 100L100 0L0 0L0 100Z">
</path>
<rect x="0" y="0" width="100" height="100"   fill="url(#linear_fill_2_25)" >
</rect>
<path d="M73.8828 65.1453C73.5345 58.1405 68.2974 52.4596 61.5124 51.3286C64.1309 46.3803 69.3422 43 75.3533 43C83.9958 43 91.0001 49.979 91.0001 58.5904C91.0001 64.7468 87.4141 70.055 82.2157 72.587C80.8225 68.9368 77.7267 66.1349 73.8828 65.1453Z"   fill="#FFCA33" >
</path>
<path d="M42.086 60.9297C43.0663 60.9297 44.0338 61.0325 44.9625 61.2253C46.9232 55.3388 52.4957 51.0974 59.0614 51.0974C59.8999 51.0974 60.7125 51.2002 61.5123 51.3416C60.3642 53.5137 59.7064 55.9814 59.7064 58.6033C59.7064 67.2147 66.7107 74.1937 75.3532 74.1937C77.8169 74.1937 80.1388 73.6153 82.2156 72.6C82.7186 73.9238 83.0153 75.3633 83.0153 76.8671C83.0153 83.5762 77.5589 89 70.8384 89L42.086 89C34.3077 89 28 82.7151 28 74.9649C28 67.2147 34.3077 60.9297 42.086 60.9297Z"   fill="#DBEEF7" >
</path>
<path d="M59.7066 58.5903C59.7066 55.9683 60.3644 53.5006 61.5125 51.3285C68.2975 52.4595 73.5346 58.1533 73.8829 65.1451C77.7269 66.1348 80.8227 68.9367 82.2158 72.5869C80.139 73.6022 77.8171 74.1806 75.3534 74.1806C66.7109 74.1806 59.7066 67.2016 59.7066 58.5903Z"   fill="#FFFAE1" >
</path>
<g >
<path     fill="#FFFFFF"  d="M14.0479 35.2697L26.1356 35.2697L26.1356 32.2477L22.2364 32.2477C21.3834 32.2477 20.1893 32.3452 19.2632 32.4671C22.5532 29.2258 25.2827 25.7165 25.2827 22.4508C25.2827 19.0877 23.0162 16.8944 19.6044 16.8944C17.143 16.8944 15.5345 17.8448 13.853 19.6482L15.8513 21.5735C16.753 20.5743 17.8253 19.7213 19.1413 19.7213C20.8716 19.7213 21.8464 20.8424 21.8464 22.6214C21.8464 25.424 18.9707 28.8115 14.0479 33.1982L14.0479 35.2697ZM34.5678 35.6108C38.199 35.6108 40.636 33.515 40.636 30.7855C40.636 28.3241 39.2713 26.8619 37.5897 25.9602L37.5897 25.8383C38.7595 24.9853 39.9049 23.4988 39.9049 21.7197C39.9049 18.844 37.8578 16.9188 34.6653 16.9188C31.5215 16.9188 29.2307 18.7709 29.2307 21.6953C29.2307 23.5962 30.2299 24.961 31.619 25.9602L31.619 26.082C29.9374 26.9594 28.5239 28.4703 28.5239 30.7855C28.5239 33.6125 31.0828 35.6108 34.5678 35.6108ZM35.6888 24.961C33.8123 24.2055 32.3988 23.3769 32.3988 21.6953C32.3988 20.2331 33.3736 19.4289 34.5922 19.4289C36.1031 19.4289 36.9805 20.4768 36.9805 21.9391C36.9805 23.0113 36.5662 24.0593 35.6888 24.961ZM34.6409 33.0763C32.9593 33.0763 31.619 32.0284 31.619 30.3956C31.619 29.0308 32.3013 27.8367 33.2762 27.0325C35.6157 28.0317 37.2973 28.7871 37.2973 30.6637C37.2973 32.2234 36.1762 33.0763 34.6409 33.0763Z">
</path>
</g>
<g >
<path     fill="#FFFFFF"  d="M47.1601 27.1788C48.3577 27.1788 49.3465 26.2736 49.3465 24.9785C49.3465 23.6834 48.3577 22.7642 47.1601 22.7642C45.9346 22.7642 44.9459 23.6834 44.9459 24.9785C44.9459 26.2736 45.9346 27.1788 47.1601 27.1788ZM47.1601 26.1761C46.5056 26.1761 46.06 25.6887 46.06 24.9785C46.06 24.2682 46.5056 23.7808 47.1601 23.7808C47.8007 23.7808 48.2463 24.2682 48.2463 24.9785C48.2463 25.6887 47.8007 26.1761 47.1601 26.1761ZM55.4182 33.7936C56.769 33.7936 57.8692 33.2644 58.7186 32.2757L57.6185 30.9945C57.0754 31.5933 56.393 32.0111 55.5017 32.0111C53.8724 32.0111 52.828 30.6602 52.828 28.4182C52.828 26.204 53.9838 24.8671 55.5435 24.8671C56.3234 24.8671 56.9222 25.2291 57.4514 25.7305L58.5237 24.4214C57.8552 23.7251 56.8247 23.0985 55.5017 23.0985C52.8976 23.0985 50.7112 25.0899 50.7112 28.4878C50.7112 31.9275 52.828 33.7936 55.4182 33.7936Z">
</path>
</g>
<defs>
<linearGradient id="linear_fill_2_25" x1="63.202999999999996" y1="3.345" x2="0" y2="100" gradientUnits="userSpaceOnUse">
<stop offset="0" stop-color="#036CF2"  />
<stop offset="1" stop-color="#31CBF7"  />
</linearGradient>
</defs>
</svg>
