<svg t="1747283895008" class="icon" viewBox="0 0 1155 1024" version="1.1" xmlns="http://www.w3.org/2000/svg" p-id="4023">
  <path d="M980.930724 675.810699c-16.652996-87.217834-67.657577-118.672359-153.013743-94.358475-16.280662 10.343729-29.883584 23.094874-40.803665 38.253436 48.87769-173.410475-5.528897-303.467056-163.214659-390.185045-180.459308-57.176135-313.922996-1.922873-400.385962 165.764888-29.72547 72.803939-30.577246 145.908805-2.550229 219.319699-52.616326-55.273665-107.874689-58.67567-165.764888-10.200916-15.260571 19.432745-22.911258 41.53303-22.952062 66.305955a574.928738 574.928738 0 0 1-30.602748-102.009162v-127.511453C34.856951 253.314252 138.564566 119.850565 312.770712 40.803665 536.599216-37.758691 729.569948 8.992108 891.672707 181.066263c116.193536 149.484226 145.944508 314.397338 89.258017 494.744436z" fill="#10B163" opacity=".98" p-id="4024"></path>
  <path d="M220.962466 614.605202c76.445666 156.987 200.555113 217.345821 372.333442 181.066263 88.039007-32.780644 152.64141-91.435912 193.817408-175.965805 10.920081-15.158561 24.523003-27.909707 40.803665-38.253436 85.356166-24.313884 136.360748 7.140641 153.013743 94.358475-85.203153 213.581683-243.317354 325.791762-474.342604 336.630235-207.700855-4.774029-359.862822-98.280727-456.491-280.525196-10.486542-19.218526-16.433676-39.620359-17.851604-61.205497 0.040804-24.772925 7.691491-46.87321 22.952062-66.305955 57.8902-48.474754 113.148563-45.072748 165.764888 10.200916z" fill="#FE9932" opacity=".987" p-id="4025"></path>
  <path d="M1011.533473 808.42261c98.275627-4.605714 139.931068 41.298409 124.961224 137.712369-35.499188 66.076435-87.355546 82.224485-155.563973 48.454352-54.294377-50.984179-57.696382-104.538989-10.200916-160.66443 12.383912-11.24651 25.986834-19.748974 40.803665-25.502291z" fill="#FF9932" opacity=".97" p-id="4026"></path>
</svg>